<svg xmlns="http://www.w3.org/2000/svg" viewBox="0 0 1024 1024">
  <defs>
    <radialGradient id="bg" cx="43%" cy="37%" r="72%">
      <stop offset="0%" stop-color="#232629"/>
      <stop offset="58%" stop-color="#111315"/>
      <stop offset="100%" stop-color="#08090a"/>
    </radialGradient>
    <linearGradient id="metal" x1="0" x2="0" y1="0" y2="1">
      <stop offset="0%" stop-color="#faf8ee"/>
      <stop offset="45%" stop-color="#deded8"/>
      <stop offset="100%" stop-color="#aeb3b7"/>
    </linearGradient>
    <linearGradient id="edge" x1="0" x2="1" y1="0" y2="1">
      <stop offset="0%" stop-color="#ffffff" stop-opacity="0.92"/>
      <stop offset="50%" stop-color="#b7bcc0" stop-opacity="0.38"/>
      <stop offset="100%" stop-color="#ffffff" stop-opacity="0.55"/>
    </linearGradient>
    <filter id="shadow" x="-20%" y="-20%" width="140%" height="150%">
      <feDropShadow dx="0" dy="18" stdDeviation="20" flood-color="#000000" flood-opacity="0.55"/>
      <feDropShadow dx="0" dy="3" stdDeviation="3" flood-color="#000000" flood-opacity="0.42"/>
    </filter>
    <filter id="innerShadow">
      <feDropShadow dx="0" dy="8" stdDeviation="7" flood-color="#000000" flood-opacity="0.55"/>
    </filter>
    <path id="leftLink" fill-rule="evenodd" d="M124 396 L266 254 L520 254 L662 396 L662 652 L520 794 L266 794 L124 652 Z M254 438 L312 380 L474 380 L532 438 L532 610 L474 668 L312 668 L254 610 Z"/>
    <path id="rightLink" fill-rule="evenodd" d="M360 396 L502 254 L758 254 L900 396 L900 652 L758 794 L502 794 L360 652 Z M490 438 L548 380 L712 380 L770 438 L770 610 L712 668 L548 668 L490 610 Z"/>
  </defs>
  <rect width="1024" height="1024" fill="url(#bg)"/>
  <rect width="1024" height="1024" fill="#000000" opacity="0.08"/>
  <g filter="url(#shadow)">
    <use href="#leftLink" fill="url(#metal)"/>
    <use href="#leftLink" fill="none" stroke="url(#edge)" stroke-width="8"/>
    <path d="M254 438 L312 380 L474 380 L532 438 L532 610 L474 668 L312 668 L254 610 Z" fill="none" stroke="#777d82" stroke-width="12" opacity="0.5" filter="url(#innerShadow)"/>
  </g>
  <g filter="url(#shadow)">
    <use href="#rightLink" fill="url(#metal)"/>
    <use href="#rightLink" fill="none" stroke="url(#edge)" stroke-width="8"/>
    <path d="M490 438 L548 380 L712 380 L770 438 L770 610 L712 668 L548 668 L490 610 Z" fill="none" stroke="#777d82" stroke-width="12" opacity="0.5" filter="url(#innerShadow)"/>
  </g>
  <path d="M505 350 L580 424 L580 620 L512 690 L446 620 L446 424 Z" fill="url(#metal)" opacity="0.96" filter="url(#shadow)"/>
  <path d="M505 350 L580 424 L580 620 L512 690 L446 620 L446 424 Z" fill="none" stroke="url(#edge)" stroke-width="7" opacity="0.85"/>
</svg>
